<?xml version="1.0" standalone="no"?>
<!DOCTYPE svg PUBLIC "-//W3C//DTD SVG 20010904//EN"
 "http://www.w3.org/TR/2001/REC-SVG-20010904/DTD/svg10.dtd">
<svg version="1.0" xmlns="http://www.w3.org/2000/svg"
 width="1024.000000pt" height="1024.000000pt" viewBox="0 0 1024.000000 1024.000000"
 preserveAspectRatio="xMidYMid meet">

<g transform="translate(0.000000,1024.000000) scale(0.100000,-0.100000)"
fill="#000000" stroke="none">
<path d="M6020 9327 c-37 -18 -90 -133 -164 -357 -94 -284 -163 -561 -180
-726 -6 -52 -15 -74 -62 -145 -134 -204 -233 -457 -294 -753 -58 -280 -82
-351 -161 -467 -54 -81 -80 -104 -154 -141 -97 -50 -185 -75 -435 -128 -286
-60 -441 -103 -625 -176 -276 -110 -549 -271 -749 -444 -588 -508 -966 -1196
-1121 -2040 -48 -263 -55 -340 -62 -655 -6 -311 6 -470 53 -735 141 -780 506
-1264 1124 -1493 358 -132 734 -159 2125 -153 568 3 795 7 835 16 174 39 270
152 270 319 0 139 -56 233 -173 291 -105 51 -135 53 -701 47 l-519 -5 34 26
c188 144 418 442 522 678 107 240 142 390 141 604 0 166 -15 272 -60 427 -82
290 -284 546 -519 658 -43 21 -80 47 -91 63 -34 52 -147 161 -213 205 -95 64
-218 123 -329 159 -85 27 -93 32 -72 40 40 15 219 10 283 -7 124 -32 240 -97
371 -207 94 -79 157 -102 262 -95 45 3 119 15 165 27 l84 22 72 -75 c48 -51
75 -88 82 -114 36 -128 139 -611 246 -1148 237 -1188 242 -1208 338 -1312 53
-58 110 -97 183 -125 54 -21 75 -23 239 -23 202 1 275 15 368 75 133 84 129
313 -7 454 -54 55 -133 93 -234 113 l-80 16 -6 41 c-12 83 -55 596 -65 771
-35 602 -34 991 4 1216 19 115 26 131 88 203 204 236 369 541 432 798 56 229
56 446 0 738 -13 69 -38 199 -55 290 -37 191 -37 301 -1 405 35 100 40 104
221 167 296 104 460 201 540 318 47 69 85 162 95 235 5 27 20 83 35 125 16 41
31 95 35 120 6 42 5 46 -22 62 -38 22 -182 166 -198 198 -7 14 -16 56 -20 93
-9 88 -38 195 -72 260 -49 98 -104 161 -220 254 -20 16 -25 35 -38 163 -18
173 -41 318 -93 582 -52 264 -69 286 -147 205 -118 -123 -380 -473 -466 -621
l-44 -76 -80 0 c-44 0 -96 -3 -116 -6 l-36 -6 -53 93 c-162 288 -384 613 -442
649 -39 23 -36 23 -68 7z m1285 -1455 c33 -6 41 -12 43 -32 9 -76 33 -128 76
-168 40 -37 42 -41 22 -46 -11 -3 -55 -6 -96 -6 -85 0 -140 20 -181 66 -34 38
-122 164 -117 169 6 6 123 23 168 23 25 1 63 -2 85 -6z"/>
</g>
</svg>
